<svg xmlns="http://www.w3.org/2000/svg" viewBox="0 0 128 128"><defs><linearGradient id="supabase-original-a" gradientUnits="userSpaceOnUse" x1="53.974" y1="54.974" x2="94.163" y2="71.829" gradientTransform="translate(29.982 60.941) scale(.69767)"><stop offset="0" stop-color="#249361"/><stop offset="1" stop-color="#3ecf8e"/></linearGradient><linearGradient id="supabase-original-b" gradientUnits="userSpaceOnUse" x1="36.156" y1="30.578" x2="54.484" y2="65.081" gradientTransform="translate(29.982 60.941) scale(.69767)"><stop offset="0" stop-color="#000000"/><stop offset="1" stop-color="#000000" stop-opacity="0"/></linearGradient></defs><path fill="#3ecf8e" d="M61.44 0H34.1a5.12 5.12 0 0 0-4.75 3.15L.58 91.84a5.12 5.12 0 0 0 4.75 7.1h28.6a5.12 5.12 0 0 0 4.83-3.5l28.91-92.16A3 3 0 0 0 64.61 0a3.19 3.19 0 0 0-3.17 0z"/><path fill="url(#supabase-original-a)" d="M96.8 0H69.6a5.12 5.12 0 0 0-4.75 3.15l-28.77 88.7a5.12 5.12 0 0 0 4.75 7.1h28.6a5.12 5.12 0 0 0 4.83-3.5l28.91-92.16A3 3 0 0 0 100 0a3.19 3.19 0 0 0-3.21 0z" transform="translate(31.897)"/><path fill="url(#supabase-original-b)" d="M61.44 0H34.1a5.12 5.12 0 0 0-4.75 3.15L.58 91.84a5.12 5.12 0 0 0 4.75 7.1h28.6a5.12 5.12 0 0 0 4.83-3.5l28.91-92.16A3 3 0 0 0 64.61 0a3.19 3.19 0 0 0-3.17 0z"/></svg> 