<svg xmlns="http://www.w3.org/2000/svg" viewBox="0 0 128 128"><path d="M64 25.6c-17.2 0-27.9 8.5-32 25.6 6.4-8.5 13.9-11.7 22.4-9.6 4.9 1.2 8.3 4.7 12.2 8.6 6.3 6.3 13.5 13.5 29.4 13.5 17.2 0 27.9-8.5 32-25.6-6.4 8.5-13.9 11.7-22.4 9.6-4.9-1.2-8.3-4.7-12.2-8.6-6.3-6.3-13.5-13.5-29.4-13.5zM32 64c-17.2 0-27.9 8.5-32 25.6 6.4-8.5 13.9-11.7 22.4-9.6 4.9 1.2 8.3 4.7 12.2 8.6 6.3 6.3 13.5 13.5 29.4 13.5 17.2 0 27.9-8.5 32-25.6-6.4 8.5-13.9 11.7-22.4 9.6-4.9-1.2-8.3-4.7-12.2-8.6-6.3-6.3-13.5-13.5-29.4-13.5z" fill="#38b2ac"/></svg> 